<svg xmlns="http://www.w3.org/2000/svg" version="1.1" xmlns:xlink="http://www.w3.org/1999/xlink" xmlns:svgjs="http://svgjs.com/svgjs" width="1440" height="560" preserveAspectRatio="none" viewBox="0 0 1440 560"><g mask="url(&quot;#SvgjsMask1003&quot;)" fill="none"><path d="M403.33 476.58 a1.11 1.11 0 1 0 2.22 0 a1.11 1.11 0 1 0 -2.22 0z" stroke="#d3b714"></path><path d="M1167.19 405.85L1222.26 405.85L1222.26 420.62L1167.19 420.62z" stroke="#d3b714"></path><path d="M434.43 506.4L448.18 506.4L448.18 520.15L434.43 520.15z" fill="#d3b714"></path><path d="M156.63 266.43 a18.31 18.31 0 1 0 36.62 0 a18.31 18.31 0 1 0 -36.62 0z" stroke="rgba(132, 49, 155, 1)"></path><path d="M1080.05 543.05L1125.89 543.05L1125.89 557.16L1080.05 557.16z" stroke="#d3b714"></path><path d="M695.01 97.43a53.55 53.55 0 1 0-51.24 94.05z" stroke="rgba(132, 49, 155, 1)"></path><path d="M278.53 406.57a3.23 3.23 0 1 0-6.37-1.06z" fill="rgba(132, 49, 155, 1)"></path><path d="M-7.29 310.7 a23.16 23.16 0 1 0 46.32 0 a23.16 23.16 0 1 0 -46.32 0z" fill="rgba(132, 49, 155, 1)"></path><path d="M636.8 280.57L675.02 280.57L675.02 318.79L636.8 318.79z" stroke="rgba(132, 49, 155, 1)"></path><path d="M800.05 403.41a55.93 55.93 0 1 0-110.92-14.51z" stroke="#d3b714"></path><path d="M1064.15 305.8 a28.02 28.02 0 1 0 56.04 0 a28.02 28.02 0 1 0 -56.04 0z" stroke="rgba(132, 49, 155, 1)"></path><path d="M936.39 116.42a51.69 51.69 0 1 0 45.5-92.83z" fill="rgba(132, 49, 155, 1)"></path><path d="M23.32 314.22 a11.49 11.49 0 1 0 22.98 0 a11.49 11.49 0 1 0 -22.98 0z" stroke="rgba(132, 49, 155, 1)"></path><path d="M320.43 329.47a25.84 25.84 0 1 0-9.48 50.8z" fill="#d3b714"></path><path d="M976.94 533.45L996.32 533.45L996.32 561.74L976.94 561.74z" stroke="#d3b714"></path><path d="M724.35 469.38L773.65 469.38L773.65 518.68L724.35 518.68z" fill="rgba(132, 49, 155, 1)"></path><path d="M1008.06 67.11a4.1 4.1 0 1 0 3.13 7.58z" stroke="#d3b714"></path><path d="M222.36 354.16L274.57 354.16L274.57 367.38L222.36 367.38z" stroke="rgba(132, 49, 155, 1)"></path><path d="M1422.5 31.57L1447.94 31.57L1447.94 57.01L1422.5 57.01z" fill="#d3b714"></path><path d="M22.33 204.19L59.18 204.19L59.18 241.04L22.33 241.04z" fill="#d3b714"></path><path d="M182.21 1.63 a49.3 49.3 0 1 0 98.6 0 a49.3 49.3 0 1 0 -98.6 0z" fill="rgba(132, 49, 155, 1)"></path><path d="M14.59 282.31 a27.41 27.41 0 1 0 54.82 0 a27.41 27.41 0 1 0 -54.82 0z" fill="#d3b714"></path><path d="M1031.43 347.1L1031.74 347.1L1031.74 371.17L1031.43 371.17z" stroke="#d3b714"></path><path d="M974.14 141.13 a55.59 55.59 0 1 0 111.18 0 a55.59 55.59 0 1 0 -111.18 0z" stroke="rgba(132, 49, 155, 1)"></path><path d="M1005.54 180.75L1050.81 180.75L1050.81 209.2L1005.54 209.2z" stroke="rgba(132, 49, 155, 1)"></path><path d="M651.15 404.01L665.03 404.01L665.03 417.89L651.15 417.89z" stroke="rgba(132, 49, 155, 1)"></path><path d="M226.28 32.12L282.27 32.12L282.27 60.41L226.28 60.41z" fill="#d3b714"></path><path d="M1147.4 176.59L1176.59 176.59L1176.59 205.78L1147.4 205.78z" stroke="#d3b714"></path><path d="M1054.45 7.62a41.97 41.97 0 1 0 79.2 27.8z" fill="rgba(132, 49, 155, 1)"></path><path d="M449.95 310.85L493.92 310.85L493.92 354.82L449.95 354.82z" fill="rgba(132, 49, 155, 1)"></path><path d="M514.54 155.95a52.96 52.96 0 1 0-84.55 63.79z" stroke="rgba(132, 49, 155, 1)"></path><path d="M1360.59 210.29L1411.59 210.29L1411.59 223.72L1360.59 223.72z" fill="rgba(132, 49, 155, 1)"></path><path d="M1315.6 415.79L1370.4 415.79L1370.4 470.59L1315.6 470.59z" stroke="rgba(132, 49, 155, 1)"></path></g><defs><mask id="SvgjsMask1003"><rect width="1440" height="560" fill="#ffffff"></rect></mask></defs></svg>