<svg xmlns="http://www.w3.org/2000/svg" version="1.1" xmlns:xlink="http://www.w3.org/1999/xlink" xmlns:svgjs="http://svgjs.com/svgjs" width="1440" height="560" preserveAspectRatio="none" viewBox="0 0 1440 560"><g mask="url(&quot;#SvgjsMask1012&quot;)" fill="none"><path d="M406.25 538.59a21.25 21.25 0 1 0 27.76-32.18z" fill="rgba(132, 49, 155, 1)"></path><path d="M1163.16 489.81 a13.1 13.1 0 1 0 26.2 0 a13.1 13.1 0 1 0 -26.2 0z" fill="rgba(132, 49, 155, 1)"></path><path d="M1372.86 239.36L1373.14 239.36L1373.14 258.76L1372.86 258.76z" stroke="#d3b714"></path><path d="M670.93 45.48L694.48 45.48L694.48 77.95L670.93 77.95z" stroke="#d3b714"></path><path d="M456.91 501.75 a20.08 20.08 0 1 0 40.16 0 a20.08 20.08 0 1 0 -40.16 0z" fill="rgba(132, 49, 155, 1)"></path><path d="M1030.13 328.86 a13.08 13.08 0 1 0 26.16 0 a13.08 13.08 0 1 0 -26.16 0z" fill="#d3b714"></path><path d="M1363.66 114.52L1386.16 114.52L1386.16 137.02L1363.66 137.02z" stroke="#d3b714"></path><path d="M1158.13 126.85a8.76 8.76 0 1 0 17.51-0.6z" fill="#d3b714"></path><path d="M1028.02 451.37L1045.09 451.37L1045.09 468.44L1028.02 468.44z" fill="#d3b714"></path><path d="M-40.88 511.62 a48.59 48.59 0 1 0 97.18 0 a48.59 48.59 0 1 0 -97.18 0z" fill="rgba(132, 49, 155, 1)"></path><path d="M980.11 358.46L980.17 358.46L980.17 358.48L980.11 358.48z" stroke="#d3b714"></path><path d="M481.43 403.02L532.33 403.02L532.33 453.92L481.43 453.92z" stroke="rgba(132, 49, 155, 1)"></path><path d="M198.75 253.67a19.14 19.14 0 1 0-29.91 23.89z" fill="#d3b714"></path><path d="M1251.39 125.73L1258.12 125.73L1258.12 176.02L1251.39 176.02z" fill="#d3b714"></path><path d="M1219.92 69.06 a26.59 26.59 0 1 0 53.18 0 a26.59 26.59 0 1 0 -53.18 0z" fill="#d3b714"></path><path d="M1177.86 302.38L1198.11 302.38L1198.11 322.63L1177.86 322.63z" stroke="#d3b714"></path><path d="M965.78 175.72a22.34 22.34 0 1 0-44.51-3.84z" fill="rgba(132, 49, 155, 1)"></path><path d="M173.41 71.63 a22.54 22.54 0 1 0 45.08 0 a22.54 22.54 0 1 0 -45.08 0z" stroke="rgba(132, 49, 155, 1)"></path><path d="M1168.76 230.64a48.98 48.98 0 1 0-53.33 82.17z" stroke="#d3b714"></path><path d="M810.12 368.85L832.69 368.85L832.69 391.42L810.12 391.42z" stroke="rgba(132, 49, 155, 1)"></path><path d="M266.8 263.09L270.34 263.09L270.34 266.63L266.8 266.63z" stroke="#d3b714"></path><path d="M506.46 509.22L550.12 509.22L550.12 552.88L506.46 552.88z" stroke="rgba(132, 49, 155, 1)"></path><path d="M839.53 260.12 a5.07 5.07 0 1 0 10.14 0 a5.07 5.07 0 1 0 -10.14 0z" fill="#d3b714"></path><path d="M1088.75 143.23 a45.32 45.32 0 1 0 90.64 0 a45.32 45.32 0 1 0 -90.64 0z" stroke="#d3b714"></path><path d="M318.4 293.42L367.17 293.42L367.17 321.8L318.4 321.8z" fill="#d3b714"></path><path d="M1090.8 483.84L1105.08 483.84L1105.08 498.12L1090.8 498.12z" stroke="#d3b714"></path><path d="M1019.61 437.87L1021.02 437.87L1021.02 439.28L1019.61 439.28z" fill="#d3b714"></path><path d="M1177.16 177.86a47.41 47.41 0 1 0 58.13-74.9z" stroke="rgba(132, 49, 155, 1)"></path><path d="M1121.3 157.74 a29.94 29.94 0 1 0 59.88 0 a29.94 29.94 0 1 0 -59.88 0z" fill="#d3b714"></path><path d="M167.65 317.85a7.77 7.77 0 1 0 14.11 6.52z" stroke="#d3b714"></path><path d="M318.27 431.87L331.76 431.87L331.76 480.36L318.27 480.36z" stroke="rgba(132, 49, 155, 1)"></path><path d="M447.05 300.93a20.54 20.54 0 1 0 17.98 36.94z" stroke="#d3b714"></path><path d="M436.19 179.65L447.85 179.65L447.85 192.9L436.19 192.9z" stroke="rgba(132, 49, 155, 1)"></path></g><defs><mask id="SvgjsMask1012"><rect width="1440" height="560" fill="#ffffff"></rect></mask></defs></svg>