<svg xmlns="http://www.w3.org/2000/svg" version="1.1" xmlns:xlink="http://www.w3.org/1999/xlink" xmlns:svgjs="http://svgjs.com/svgjs" width="1440" height="560" preserveAspectRatio="none" viewBox="0 0 1440 560"><g mask="url(&quot;#SvgjsMask1001&quot;)" fill="none"><path d="M794.43 58.94a31.69 31.69 0 1 0-16.55-61.18z" fill="rgba(132, 49, 155, 1)"></path><path d="M755.05 503.24L792.64 503.24L792.64 540.83L755.05 540.83z" stroke="rgba(132, 49, 155, 1)"></path><path d="M381.69 343.02L412.24 343.02L412.24 373.57L381.69 373.57z" stroke="#d3b714"></path><path d="M89.11 70.22L106.5 70.22L106.5 94.53L89.11 94.53z" stroke="#d3b714"></path><path d="M966.4 455.48a23.21 23.21 0 1 0-36.24-29.01z" stroke="rgba(132, 49, 155, 1)"></path><path d="M1154.76 2.61L1156.39 2.61L1156.39 34.08L1154.76 34.08z" fill="rgba(132, 49, 155, 1)"></path><path d="M49.83 132.3L60.6 132.3L60.6 156.14L49.83 156.14z" stroke="#d3b714"></path><path d="M650.94 519.36L667.5 519.36L667.5 535.92L650.94 535.92z" fill="#d3b714"></path><path d="M737.03 353.3 a6.48 6.48 0 1 0 12.96 0 a6.48 6.48 0 1 0 -12.96 0z" fill="rgba(132, 49, 155, 1)"></path><path d="M1358.55 148.12L1366.65 148.12L1366.65 187.55L1358.55 187.55z" stroke="rgba(132, 49, 155, 1)"></path><path d="M144.68 484.02L150.55 484.02L150.55 489.89L144.68 489.89z" fill="#d3b714"></path><path d="M43.85 481.07L52.74 481.07L52.74 511.66L43.85 511.66z" stroke="#d3b714"></path><path d="M183.76 51.68L204.81 51.68L204.81 74.85L183.76 74.85z" fill="rgba(132, 49, 155, 1)"></path><path d="M1331.93 540.96a13.15 13.15 0 1 0-25.42 6.72z" fill="#d3b714"></path><path d="M125.94 200.12a48.32 48.32 0 1 0-92.25 28.78z" fill="rgba(132, 49, 155, 1)"></path><path d="M389.78 399.2 a12.74 12.74 0 1 0 25.48 0 a12.74 12.74 0 1 0 -25.48 0z" fill="rgba(132, 49, 155, 1)"></path><path d="M777.58 217.89L808.3 217.89L808.3 248.61L777.58 248.61z" stroke="#d3b714"></path><path d="M686.79 75.83 a8.03 8.03 0 1 0 16.06 0 a8.03 8.03 0 1 0 -16.06 0z" fill="#d3b714"></path><path d="M-28.09 58.82 a50.52 50.52 0 1 0 101.04 0 a50.52 50.52 0 1 0 -101.04 0z" fill="#d3b714"></path><path d="M1388.55 173.85L1436.14 173.85L1436.14 223.01L1388.55 223.01z" fill="#d3b714"></path><path d="M1114.02 433.26L1154.7 433.26L1154.7 448L1114.02 448z" stroke="rgba(132, 49, 155, 1)"></path><path d="M259.59 14.31a32.67 32.67 0 1 0 37.34 53.62z" fill="#d3b714"></path><path d="M1043.34 533.58L1057.34 533.58L1057.34 547.58L1043.34 547.58z" stroke="#d3b714"></path><path d="M786.23 157.91L806.75 157.91L806.75 178.43L786.23 178.43z" stroke="#d3b714"></path><path d="M1088.47 304.36L1114.79 304.36L1114.79 330.68L1088.47 330.68z" stroke="rgba(132, 49, 155, 1)"></path><path d="M267.39 201.9L286.35 201.9L286.35 204.42L267.39 204.42z" stroke="#d3b714"></path><path d="M673.14 509.54L675.97 509.54L675.97 512.37L673.14 512.37z" stroke="#d3b714"></path><path d="M1216.04 357.5L1256.54 357.5L1256.54 398L1216.04 398z" fill="rgba(132, 49, 155, 1)"></path><path d="M401.34 325.72L412.12 325.72L412.12 336.5L401.34 336.5z" stroke="rgba(132, 49, 155, 1)"></path><path d="M199.26 142.12a23.84 23.84 0 1 0 26.95-39.33z" stroke="rgba(132, 49, 155, 1)"></path><path d="M172.19 147.66a40.11 40.11 0 1 0-62.2-50.67z" fill="rgba(132, 49, 155, 1)"></path><path d="M1443.65 102.67a55.21 55.21 0 1 0-107.56 24.97z" fill="#d3b714"></path><path d="M866.55 250.62L899.86 250.62L899.86 306.08L866.55 306.08z" stroke="rgba(132, 49, 155, 1)"></path></g><defs><mask id="SvgjsMask1001"><rect width="1440" height="560" fill="#ffffff"></rect></mask></defs></svg>