<svg xmlns="http://www.w3.org/2000/svg" version="1.1" xmlns:xlink="http://www.w3.org/1999/xlink" xmlns:svgjs="http://svgjs.com/svgjs" width="1440" height="560" preserveAspectRatio="none" viewBox="0 0 1440 560"><g mask="url(&quot;#SvgjsMask1009&quot;)" fill="none"><path d="M1042.99 188.79a45.41 45.41 0 1 0-64.92 63.51z" stroke="rgba(132, 49, 155, 1)"></path><path d="M1006.1 111.26a23.02 23.02 0 1 0 43.16 16.02z" stroke="rgba(132, 49, 155, 1)"></path><path d="M1255.2 370.13L1262.18 370.13L1262.18 384.37L1255.2 384.37z" stroke="rgba(132, 49, 155, 1)"></path><path d="M998.33 21.75a9.32 9.32 0 1 0 14.16-12.13z" fill="rgba(132, 49, 155, 1)"></path><path d="M190.51 443.9L216.3 443.9L216.3 469.69L190.51 469.69z" fill="rgba(132, 49, 155, 1)"></path><path d="M134.37 474.58 a18.1 18.1 0 1 0 36.2 0 a18.1 18.1 0 1 0 -36.2 0z" fill="rgba(132, 49, 155, 1)"></path><path d="M970.92 107.54L980.91 107.54L980.91 153.18L970.92 153.18z" stroke="#d3b714"></path><path d="M1289.55 337.35 a12.82 12.82 0 1 0 25.64 0 a12.82 12.82 0 1 0 -25.64 0z" stroke="rgba(132, 49, 155, 1)"></path><path d="M273.05 499.46a54.72 54.72 0 1 0-87.35-65.93z" fill="rgba(132, 49, 155, 1)"></path><path d="M256.61 336.65 a42.68 42.68 0 1 0 85.36 0 a42.68 42.68 0 1 0 -85.36 0z" stroke="rgba(132, 49, 155, 1)"></path><path d="M139.38 394.54a52.82 52.82 0 1 0-37.36-98.81z" fill="rgba(132, 49, 155, 1)"></path><path d="M997.71-15.28a46.67 46.67 0 1 0-76.93 52.85z" fill="#d3b714"></path><path d="M1236.28 261.79L1290.01 261.79L1290.01 315.52L1236.28 315.52z" fill="rgba(132, 49, 155, 1)"></path><path d="M921.28 104.75 a16.11 16.11 0 1 0 32.22 0 a16.11 16.11 0 1 0 -32.22 0z" stroke="rgba(132, 49, 155, 1)"></path><path d="M512.36 279.16a45.74 45.74 0 1 0-64.03-65.34z" fill="#d3b714"></path><path d="M1201.84 2.11 a33.14 33.14 0 1 0 66.28 0 a33.14 33.14 0 1 0 -66.28 0z" fill="#d3b714"></path><path d="M697.05 277.84a41.13 41.13 0 1 0 60.98-55.2z" fill="#d3b714"></path><path d="M1116.47 295.52 a42.57 42.57 0 1 0 85.14 0 a42.57 42.57 0 1 0 -85.14 0z" stroke="#d3b714"></path><path d="M930.28 539.65L951.63 539.65L951.63 567.67L930.28 567.67z" fill="#d3b714"></path><path d="M672.68 82.78L687.06 82.78L687.06 97.16L672.68 97.16z" fill="#d3b714"></path><path d="M374.36 148.96L374.51 148.96L374.51 149.11L374.36 149.11z" stroke="rgba(132, 49, 155, 1)"></path><path d="M900.58 503.75 a3.9 3.9 0 1 0 7.8 0 a3.9 3.9 0 1 0 -7.8 0z" fill="#d3b714"></path><path d="M669.74 486.01L676.98 486.01L676.98 488.82L669.74 488.82z" fill="rgba(132, 49, 155, 1)"></path><path d="M662.91 486.29 a11.07 11.07 0 1 0 22.14 0 a11.07 11.07 0 1 0 -22.14 0z" stroke="rgba(132, 49, 155, 1)"></path><path d="M1323.82 307.67a9.12 9.12 0 1 0 16.08 8.62z" stroke="rgba(132, 49, 155, 1)"></path><path d="M574.95 17.1L598.38 17.1L598.38 25.04L574.95 25.04z" stroke="rgba(132, 49, 155, 1)"></path><path d="M480.18 310.26L510.93 310.26L510.93 341.01L480.18 341.01z" stroke="#d3b714"></path><path d="M1062.56 3.36L1076.32 3.36L1076.32 17.12L1062.56 17.12z" stroke="rgba(132, 49, 155, 1)"></path><path d="M41.68 331.3a30.24 30.24 0 1 0-44.82 40.6z" fill="rgba(132, 49, 155, 1)"></path><path d="M1018.18 28.79L1039.77 28.79L1039.77 62.58L1018.18 62.58z" stroke="rgba(132, 49, 155, 1)"></path><path d="M601.6 393.02a8.39 8.39 0 1 0 13.04 10.56z" fill="#d3b714"></path><path d="M1068.23 559.6L1112.27 559.6L1112.27 565.71L1068.23 565.71z" stroke="#d3b714"></path><path d="M454.3 188.95a9.62 9.62 0 1 0 8.23-17.4z" fill="#d3b714"></path></g><defs><mask id="SvgjsMask1009"><rect width="1440" height="560" fill="#ffffff"></rect></mask></defs></svg>