<svg xmlns="http://www.w3.org/2000/svg" version="1.1" xmlns:xlink="http://www.w3.org/1999/xlink" xmlns:svgjs="http://svgjs.com/svgjs" width="1440" height="560" preserveAspectRatio="none" viewBox="0 0 1440 560"><g mask="url(&quot;#SvgjsMask1000&quot;)" fill="none"><rect width="1440" height="560" x="0" y="0" fill="#0e2a47"></rect><path d="M -85.01161344300095,117 C 10.99,154.4 202.99,288 394.98838655699905,304 C 586.99,320 682.99,175 874.9883865569991,197 C 1066.99,219 1162.99,424.8 1354.988386556999,414 C 1546.99,403.2 1817.99,126 1834.988386556999,143 C 1851.99,160 1519,427.8 1440,499" stroke="rgba(51, 121, 194, 0.58)" stroke-width="2"></path><path d="M -812.0005664332676,87 C -716,161.4 -524,464.6 -332.00056643326764,459 C -140,453.4 -44,74 147.99943356673236,59 C 340,44 436,370.2 627.9994335667324,384 C 820,397.8 945.6,136.6 1107.9994335667325,128 C 1270.4,119.4 1373.6,298.4 1440,341" stroke="rgba(51, 121, 194, 0.58)" stroke-width="2"></path><path d="M -319.5770772552205,74 C -223.58,155.4 -31.58,455.2 160.42292274477947,481 C 352.42,506.8 448.42,242.4 640.4229227447795,203 C 832.42,163.6 928.42,290.4 1120.4229227447795,284 C 1312.42,277.6 1536.51,145.6 1600.4229227447795,171 C 1664.34,196.4 1472.08,363 1440,411" stroke="rgba(51, 121, 194, 0.58)" stroke-width="2"></path><path d="M -857.0086031177823,176 C -761.01,224.4 -569.01,412.8 -377.00860311778234,418 C -185.01,423.2 -89.01,198.6 102.99139688221766,202 C 294.99,205.4 390.99,431.4 582.9913968822177,435 C 774.99,438.6 891.59,221 1062.9913968822177,220 C 1234.39,219 1364.6,388 1440,430" stroke="rgba(51, 121, 194, 0.58)" stroke-width="2"></path></g><defs><mask id="SvgjsMask1000"><rect width="1440" height="560" fill="#ffffff"></rect></mask></defs></svg>